{
DisplayStrings = (
"`"
);
date = "2013-05-07 17:01:52 +0000";
designer = "Shinji Pons";
designerURL = www.shinjipons.com;
familyName = "Modulo 32";
fontMaster = (
{
alignmentZones = (
"{128, 129}",
"{128, 129}",
"{128, 129}",
"{0, -2}",
"{0, -2}"
);
ascender = 128;
capHeight = 128;
customParameters = (
{
name = familyName;
value = "Modulo 32";
}
);
descender = 0;
guideLines = (
{
position = "{-25, 48}";
},
{
angle = 90;
position = "{88, 139}";
},
{
angle = 90;
position = "{56, 135}";
},
{
position = "{-18, 80}";
},
{
angle = 90;
position = "{40, 143}";
},
{
angle = 90;
position = "{104, 136}";
},
{
position = "{-22, 96}";
},
{
position = "{-20, 32}";
},
{
angle = 90;
position = "{136, -22}";
},
{
angle = 90;
position = "{8, -30}";
}
);
horizontalStems = (
32
);
id = "940E2F63-624A-4C3D-A909-721782B4CF41";
userData = {
GSOffsetHorizontal = "-1";
GSOffsetMakeStroke = 1;
GSOffsetPosition = 0;
GSOffsetProportional = 1;
GSOffsetVertical = 10;
};
verticalStems = (
32
);
weightValue = 22;
widthValue = 128;
xHeight = 128;
}
);
glyphs = (
{
glyphname = A;
lastChange = "2013-06-11 08:37:42 +0100";
layers = (
{
guideLines = (
{
position = "{-9, 59}";
showMeasurement = 1;
},
{
angle = 90;
position = "{73, -10}";
showMeasurement = 1;
}
);
layerId = "940E2F63-624A-4C3D-A909-721782B4CF41";
name = Regular;
paths = (
{
closed = 1;
nodes = (
"10 98 LINE",
"106 98 LINE",
"106 30 LINE",
"38 30 LINE",
"38 50 LINE",
"86 50 LINE",
"86 78 LINE",
"10 78 LINE",
"10 2 LINE",
"134 2 LINE",
"134 126 LINE",
"10 126 LINE"
);
},
{
closed = 1;
nodes = (
"136 128 LINE",
"136 0 LINE",
"8 0 LINE",
"8 80 LINE",
"88 80 LINE",
"88 48 LINE",
"40 48 LINE",
"40 32 LINE",
"104 32 LINE",
"104 96 LINE",
"8 96 LINE",
"8 128 LINE"
);
}
);
width = 144;
}
);
unicode = 0041;
},
{
glyphname = B;
lastChange = "2013-06-11 08:38:04 +0100";
layers = (
{
layerId = "940E2F63-624A-4C3D-A909-721782B4CF41";
name = Regular;
paths = (
{
closed = 1;
nodes = (
"10 126 LINE",
"10 2 LINE",
"38 2 LINE",
"38 98 LINE",
"106 98 LINE",
"106 78 LINE",
"58 78 LINE",
"58 50 LINE",
"106 50 LINE",
"106 30 LINE",
"58 30 LINE",
"58 2 LINE",
"134 2 LINE",
"134 126 LINE"
);
},
{
closed = 1;
nodes = (
"136 0 LINE",
"56 0 LINE",
"56 32 LINE",
"104 32 LINE",
"104 48 LINE",
"56 48 LINE",
"56 80 LINE",
"104 80 LINE",
"104 96 LINE",
"40 96 LINE",
"40 0 LINE",
"8 0 LINE",
"8 128 LINE",
"136 128 LINE"
);
}
);
width = 144;
}
);
unicode = 0042;
},
{
glyphname = C;
lastChange = "2013-06-11 08:38:15 +0100";
layers = (
{
layerId = "940E2F63-624A-4C3D-A909-721782B4CF41";
name = Regular;
paths = (
{
closed = 1;
nodes = (
"10 2 LINE",
"10 126 LINE",
"134 126 LINE",
"134 98 LINE",
"38 98 LINE",
"38 30 LINE",
"134 30 LINE",
"134 2 LINE"
);
},
{
closed = 1;
nodes = (
"136 32 LINE",
"40 32 LINE",
"40 96 LINE",
"136 96 LINE",
"136 128 LINE",
"8 128 LINE",
"8 0 LINE",
"136 0 LINE"
);
}
);
width = 144;
}
);
unicode = 0043;
},
{
glyphname = D;
lastChange = "2013-06-11 08:38:25 +0100";
layers = (
{
layerId = "940E2F63-624A-4C3D-A909-721782B4CF41";
name = Regular;
paths = (
{
closed = 1;
nodes = (
"134 126 LINE",
"10 126 LINE",
"10 98 LINE",
"106 98 LINE",
"106 30 LINE",
"38 30 LINE",
"38 78 LINE",
"10 78 LINE",
"10 2 LINE",
"134 2 LINE"
);
},
{
closed = 1;
nodes = (
"8 0 LINE",
"8 80 LINE",
"40 80 LINE",
"40 32 LINE",
"104 32 LINE",
"104 96 LINE",
"8 96 LINE",
"8 128 LINE",
"136 128 LINE",
"136 0 LINE"
);
}
);
width = 144;
}
);
unicode = 0044;
},
{
glyphname = E;
lastChange = "2013-06-11 08:38:38 +0100";
layers = (
{
layerId = "940E2F63-624A-4C3D-A909-721782B4CF41";
name = Regular;
paths = (
{
closed = 1;
nodes = (
"134 50 LINE",
"134 126 LINE",
"58 126 LINE",
"58 98 LINE",
"106 98 LINE",
"106 78 LINE",
"38 78 LINE",
"38 126 LINE",
"10 126 LINE",
"10 2 LINE",
"134 2 LINE",
"134 30 LINE",
"38 30 LINE",
"38 50 LINE"
);
},
{
closed = 1;
nodes = (
"40 32 LINE",
"136 32 LINE",
"136 0 LINE",
"8 0 LINE",
"8 128 LINE",
"40 128 LINE",
"40 80 LINE",
"104 80 LINE",
"104 96 LINE",
"56 96 LINE",
"56 128 LINE",
"136 128 LINE",
"136 48 LINE",
"40 48 LINE"
);
}
);
width = 144;
}
);
unicode = 0045;
},
{
glyphname = F;
lastChange = "2013-06-11 08:38:40 +0100";
layers = (
{
layerId = "940E2F63-624A-4C3D-A909-721782B4CF41";
name = Regular;
paths = (
{
closed = 1;
nodes = (
"38 2 LINE",
"38 50 LINE",
"134 50 LINE",
"134 78 LINE",
"38 78 LINE",
"38 98 LINE",
"134 98 LINE",
"134 126 LINE",
"10 126 LINE",
"10 2 LINE"
);
},
{
closed = 1;
nodes = (
"8 128 LINE",
"136 128 LINE",
"136 96 LINE",
"40 96 LINE",
"40 80 LINE",
"136 80 LINE",
"136 48 LINE",
"40 48 LINE",
"40 0 LINE",
"8 0 LINE"
);
}
);
width = 144;
}
);
unicode = 0046;
},
{
glyphname = H;
lastChange = "2013-06-11 08:38:45 +0100";
layers = (
{
layerId = "940E2F63-624A-4C3D-A909-721782B4CF41";
name = Regular;
paths = (
{
closed = 1;
nodes = (
"106 126 LINE",
"106 78 LINE",
"38 78 LINE",
"38 126 LINE",
"10 126 LINE",
"10 2 LINE",
"38 2 LINE",
"38 50 LINE",
"106 50 LINE",
"106 2 LINE",
"134 2 LINE",
"134 126 LINE"
);
},
{
closed = 1;
nodes = (
"136 0 LINE",
"104 0 LINE",
"104 48 LINE",
"40 48 LINE",
"40 0 LINE",
"8 0 LINE",
"8 128 LINE",
"40 128 LINE",
"40 80 LINE",
"104 80 LINE",
"104 128 LINE",
"136 128 LINE"
);
}
);
width = 144;
}
);
unicode = 0048;
},
{
glyphname = J;
lastChange = "2013-06-11 08:38:49 +0100";
layers = (
{
layerId = "940E2F63-624A-4C3D-A909-721782B4CF41";
name = Regular;
paths = (
{
closed = 1;
nodes = (
"58 126 LINE",
"58 98 LINE",
"106 98 LINE",
"106 30 LINE",
"10 30 LINE",
"10 2 LINE",
"134 2 LINE",
"134 126 LINE"
);
},
{
closed = 1;
nodes = (
"136 0 LINE",
"8 0 LINE",
"8 32 LINE",
"104 32 LINE",
"104 96 LINE",
"56 96 LINE",
"56 128 LINE",
"136 128 LINE"
);
}
);
width = 144;
}
);
unicode = 004A;
},
{
glyphname = K;
lastChange = "2013-06-11 08:38:52 +0100";
layers = (
{
layerId = "940E2F63-624A-4C3D-A909-721782B4CF41";
name = Regular;
paths = (
{
closed = 1;
nodes = (
"134 98 LINE",
"134 126 LINE",
"58 126 LINE",
"58 78 LINE",
"38 78 LINE",
"38 126 LINE",
"10 126 LINE",
"10 2 LINE",
"38 2 LINE",
"38 50 LINE",
"106 50 LINE",
"106 2 LINE",
"134 2 LINE",
"134 78 LINE",
"86 78 LINE",
"86 98 LINE"
);
},
{
closed = 1;
nodes = (
"88 80 LINE",
"136 80 LINE",
"136 0 LINE",
"104 0 LINE",
"104 48 LINE",
"40 48 LINE",
"40 0 LINE",
"8 0 LINE",
"8 128 LINE",
"40 128 LINE",
"40 80 LINE",
"56 80 LINE",
"56 128 LINE",
"136 128 LINE",
"136 96 LINE",
"88 96 LINE"
);
}
);
width = 144;
}
);
unicode = 004B;
},
{
glyphname = L;
lastChange = "2013-06-11 08:38:54 +0100";
layers = (
{
layerId = "940E2F63-624A-4C3D-A909-721782B4CF41";
name = Regular;
paths = (
{
closed = 1;
nodes = (
"134 2 LINE",
"134 30 LINE",
"38 30 LINE",
"38 126 LINE",
"10 126 LINE",
"10 2 LINE"
);
},
{
closed = 1;
nodes = (
"8 128 LINE",
"40 128 LINE",
"40 32 LINE",
"136 32 LINE",
"136 0 LINE",
"8 0 LINE"
);
}
);
width = 144;
}
);
unicode = 004C;
},
{
glyphname = M;
lastChange = "2013-06-11 08:38:57 +0100";
layers = (
{
layerId = "940E2F63-624A-4C3D-A909-721782B4CF41";
name = Regular;
paths = (
{
closed = 1;
nodes = (
"10 126 LINE",
"10 2 LINE",
"38 2 LINE",
"38 98 LINE",
"58 98 LINE",
"58 2 LINE",
"86 2 LINE",
"86 98 LINE",
"106 98 LINE",
"106 2 LINE",
"134 2 LINE",
"134 126 LINE"
);
},
{
closed = 1;
nodes = (
"136 0 LINE",
"104 0 LINE",
"104 96 LINE",
"88 96 LINE",
"88 0 LINE",
"56 0 LINE",
"56 96 LINE",
"40 96 LINE",
"40 0 LINE",
"8 0 LINE",
"8 128 LINE",
"136 128 LINE"
);
}
);
width = 144;
}
);
unicode = 004D;
},
{
glyphname = N;
lastChange = "2013-06-11 08:38:59 +0100";
layers = (
{
layerId = "940E2F63-624A-4C3D-A909-721782B4CF41";
name = Regular;
paths = (
{
closed = 1;
nodes = (
"106 126 LINE",
"106 30 LINE",
"86 30 LINE",
"86 126 LINE",
"10 126 LINE",
"10 2 LINE",
"38 2 LINE",
"38 98 LINE",
"58 98 LINE",
"58 2 LINE",
"134 2 LINE",
"134 126 LINE"
);
},
{
closed = 1;
nodes = (
"136 0 LINE",
"56 0 LINE",
"56 96 LINE",
"40 96 LINE",
"40 0 LINE",
"8 0 LINE",
"8 128 LINE",
"88 128 LINE",
"88 32 LINE",
"104 32 LINE",
"104 128 LINE",
"136 128 LINE"
);
}
);
width = 144;
}
);
unicode = 004E;
},
{
glyphname = O;
lastChange = "2013-06-11 08:39:01 +0100";
layers = (
{
layerId = "940E2F63-624A-4C3D-A909-721782B4CF41";
name = Regular;
paths = (
{
closed = 1;
nodes = (
"10 126 LINE",
"10 2 LINE",
"134 2 LINE",
"134 126 LINE"
);
},
{
closed = 1;
nodes = (
"136 0 LINE",
"8 0 LINE",
"8 128 LINE",
"136 128 LINE"
);
},
{
closed = 1;
nodes = (
"106 30 LINE",
"38 30 LINE",
"38 98 LINE",
"106 98 LINE"
);
},
{
closed = 1;
nodes = (
"40 96 LINE",
"40 32 LINE",
"104 32 LINE",
"104 96 LINE"
);
}
);
width = 144;
}
);
unicode = 004F;
},
{
glyphname = P;
lastChange = "2013-06-11 08:39:13 +0100";
layers = (
{
layerId = "940E2F63-624A-4C3D-A909-721782B4CF41";
name = Regular;
paths = (
{
closed = 1;
nodes = (
"38 98 LINE",
"106 98 LINE",
"106 78 LINE",
"58 78 LINE",
"58 50 LINE",
"134 50 LINE",
"134 126 LINE",
"10 126 LINE",
"10 2 LINE",
"38 2 LINE"
);
},
{
closed = 1;
nodes = (
"8 0 LINE",
"8 128 LINE",
"136 128 LINE",
"136 48 LINE",
"56 48 LINE",
"56 80 LINE",
"104 80 LINE",
"104 96 LINE",
"40 96 LINE",
"40 0 LINE"
);
}
);
width = 144;
}
);
unicode = 0050;
},
{
glyphname = Q;
lastChange = "2013-06-11 08:39:16 +0100";
layers = (
{
layerId = "940E2F63-624A-4C3D-A909-721782B4CF41";
name = Regular;
paths = (
{
closed = 1;
nodes = (
"10 126 LINE",
"10 2 LINE",
"134 2 LINE",
"134 126 LINE"
);
},
{
closed = 1;
nodes = (
"136 0 LINE",
"8 0 LINE",
"8 128 LINE",
"136 128 LINE"
);
},
{
closed = 1;
nodes = (
"106 30 LINE",
"86 30 LINE",
"86 78 LINE",
"58 78 LINE",
"58 30 LINE",
"38 30 LINE",
"38 98 LINE",
"106 98 LINE"
);
},
{
closed = 1;
nodes = (
"40 96 LINE",
"40 32 LINE",
"56 32 LINE",
"56 80 LINE",
"88 80 LINE",
"88 32 LINE",
"104 32 LINE",
"104 96 LINE"
);
}
);
width = 144;
}
);
unicode = 0051;
},
{
glyphname = R;
lastChange = "2013-06-11 08:39:18 +0100";
layers = (
{
layerId = "940E2F63-624A-4C3D-A909-721782B4CF41";
name = Regular;
paths = (
{
closed = 1;
nodes = (
"134 50 LINE",
"134 126 LINE",
"10 126 LINE",
"10 2 LINE",
"38 2 LINE",
"38 98 LINE",
"106 98 LINE",
"106 78 LINE",
"58 78 LINE",
"58 2 LINE",
"134 2 LINE",
"134 30 LINE",
"86 30 LINE",
"86 50 LINE"
);
},
{
closed = 1;
nodes = (
"88 32 LINE",
"136 32 LINE",
"136 0 LINE",
"56 0 LINE",
"56 80 LINE",
"104 80 LINE",
"104 96 LINE",
"40 96 LINE",
"40 0 LINE",
"8 0 LINE",
"8 128 LINE",
"136 128 LINE",
"136 48 LINE",
"88 48 LINE"
);
}
);
width = 144;
}
);
unicode = 0052;
},
{
glyphname = T;
lastChange = "2013-06-11 08:39:22 +0100";
layers = (
{
layerId = "940E2F63-624A-4C3D-A909-721782B4CF41";
name = Regular;
paths = (
{
closed = 1;
nodes = (
"10 126 LINE",
"10 98 LINE",
"58 98 LINE",
"58 2 LINE",
"86 2 LINE",
"86 98 LINE",
"134 98 LINE",
"134 126 LINE"
);
},
{
closed = 1;
nodes = (
"136 96 LINE",
"88 96 LINE",
"88 0 LINE",
"56 0 LINE",
"56 96 LINE",
"8 96 LINE",
"8 128 LINE",
"136 128 LINE"
);
}
);
width = 144;
}
);
unicode = 0054;
},
{
glyphname = V;
lastChange = "2013-06-11 08:39:26 +0100";
layers = (
{
layerId = "940E2F63-624A-4C3D-A909-721782B4CF41";
name = Regular;
paths = (
{
closed = 1;
nodes = (
"10 2 LINE",
"86 2 LINE",
"86 50 LINE",
"134 50 LINE",
"134 126 LINE",
"106 126 LINE",
"106 78 LINE",
"58 78 LINE",
"58 30 LINE",
"38 30 LINE",
"38 126 LINE",
"10 126 LINE"
);
},
{
closed = 1;
nodes = (
"40 128 LINE",
"40 32 LINE",
"56 32 LINE",
"56 80 LINE",
"104 80 LINE",
"104 128 LINE",
"136 128 LINE",
"136 48 LINE",
"88 48 LINE",
"88 0 LINE",
"8 0 LINE",
"8 128 LINE"
);
}
);
width = 144;
}
);
unicode = 0056;
},
{
glyphname = X;
lastChange = "2013-06-11 08:39:29 +0100";
layers = (
{
layerId = "940E2F63-624A-4C3D-A909-721782B4CF41";
name = Regular;
paths = (
{
closed = 1;
nodes = (
"134 98 LINE",
"134 126 LINE",
"10 126 LINE",
"10 50 LINE",
"38 50 LINE",
"38 98 LINE",
"58 98 LINE",
"58 30 LINE",
"10 30 LINE",
"10 2 LINE",
"134 2 LINE",
"134 78 LINE",
"106 78 LINE",
"106 30 LINE",
"86 30 LINE",
"86 98 LINE"
);
},
{
closed = 1;
nodes = (
"88 32 LINE",
"104 32 LINE",
"104 80 LINE",
"136 80 LINE",
"136 0 LINE",
"8 0 LINE",
"8 32 LINE",
"56 32 LINE",
"56 96 LINE",
"40 96 LINE",
"40 48 LINE",
"8 48 LINE",
"8 128 LINE",
"136 128 LINE",
"136 96 LINE",
"88 96 LINE"
);
}
);
width = 144;
}
);
unicode = 0058;
},
{
glyphname = Y;
lastChange = "2013-06-11 08:39:32 +0100";
layers = (
{
layerId = "940E2F63-624A-4C3D-A909-721782B4CF41";
name = Regular;
paths = (
{
closed = 1;
nodes = (
"106 126 LINE",
"106 78 LINE",
"38 78 LINE",
"38 126 LINE",
"10 126 LINE",
"10 50 LINE",
"106 50 LINE",
"106 30 LINE",
"10 30 LINE",
"10 2 LINE",
"134 2 LINE",
"134 126 LINE"
);
},
{
closed = 1;
nodes = (
"136 0 LINE",
"8 0 LINE",
"8 32 LINE",
"104 32 LINE",
"104 48 LINE",
"8 48 LINE",
"8 128 LINE",
"40 128 LINE",
"40 80 LINE",
"104 80 LINE",
"104 128 LINE",
"136 128 LINE"
);
}
);
width = 144;
}
);
unicode = 0059;
},
{
glyphname = zero;
lastChange = "2013-06-11 08:39:45 +0100";
layers = (
{
components = (
{
name = O;
transform = "{1, 0, 0, 1, 0, 0}";
}
);
layerId = "940E2F63-624A-4C3D-A909-721782B4CF41";
name = Regular;
paths = (
{
closed = 1;
nodes = (
"58 50 LINE",
"86 50 LINE",
"86 78 LINE",
"58 78 LINE"
);
},
{
closed = 1;
nodes = (
"88 80 LINE",
"88 48 LINE",
"56 48 LINE",
"56 80 LINE"
);
}
);
width = 144;
}
);
unicode = 0030;
},
{
glyphname = one;
lastChange = "2013-06-11 08:39:48 +0100";
layers = (
{
layerId = "940E2F63-624A-4C3D-A909-721782B4CF41";
name = Regular;
paths = (
{
closed = 1;
nodes = (
"86 30 LINE",
"86 126 LINE",
"10 126 LINE",
"10 98 LINE",
"58 98 LINE",
"58 30 LINE",
"10 30 LINE",
"10 2 LINE",
"134 2 LINE",
"134 30 LINE"
);
},
{
closed = 1;
nodes = (
"136 0 LINE",
"8 0 LINE",
"8 32 LINE",
"56 32 LINE",
"56 96 LINE",
"8 96 LINE",
"8 128 LINE",
"88 128 LINE",
"88 32 LINE",
"136 32 LINE"
);
}
);
width = 144;
}
);
unicode = 0031;
},
{
glyphname = four;
lastChange = "2013-06-11 08:39:53 +0100";
layers = (
{
layerId = "940E2F63-624A-4C3D-A909-721782B4CF41";
name = Regular;
paths = (
{
closed = 1;
nodes = (
"106 126 LINE",
"106 78 LINE",
"38 78 LINE",
"38 126 LINE",
"10 126 LINE",
"10 50 LINE",
"106 50 LINE",
"106 2 LINE",
"134 2 LINE",
"134 126 LINE"
);
},
{
closed = 1;
nodes = (
"136 0 LINE",
"104 0 LINE",
"104 48 LINE",
"8 48 LINE",
"8 128 LINE",
"40 128 LINE",
"40 80 LINE",
"104 80 LINE",
"104 128 LINE",
"136 128 LINE"
);
}
);
width = 144;
}
);
unicode = 0034;
},
{
glyphname = seven;
lastChange = "2013-06-11 08:40:13 +0100";
layers = (
{
layerId = "940E2F63-624A-4C3D-A909-721782B4CF41";
name = Regular;
paths = (
{
closed = 1;
nodes = (
"10 126 LINE",
"10 98 LINE",
"106 98 LINE",
"106 78 LINE",
"58 78 LINE",
"58 2 LINE",
"86 2 LINE",
"86 50 LINE",
"134 50 LINE",
"134 126 LINE"
);
},
{
closed = 1;
nodes = (
"136 48 LINE",
"88 48 LINE",
"88 0 LINE",
"56 0 LINE",
"56 80 LINE",
"104 80 LINE",
"104 96 LINE",
"8 96 LINE",
"8 128 LINE",
"136 128 LINE"
);
}
);
width = 144;
}
);
unicode = 0037;
},
{
glyphname = eight;
lastChange = "2013-06-11 08:40:16 +0100";
layers = (
{
layerId = "940E2F63-624A-4C3D-A909-721782B4CF41";
name = Regular;
paths = (
{
closed = 1;
nodes = (
"10 126 LINE",
"10 2 LINE",
"134 2 LINE",
"134 126 LINE"
);
},
{
closed = 1;
nodes = (
"136 0 LINE",
"8 0 LINE",
"8 128 LINE",
"136 128 LINE"
);
},
{
closed = 1;
nodes = (
"106 78 LINE",
"38 78 LINE",
"38 98 LINE",
"106 98 LINE"
);
},
{
closed = 1;
nodes = (
"40 96 LINE",
"40 80 LINE",
"104 80 LINE",
"104 96 LINE"
);
},
{
closed = 1;
nodes = (
"106 30 LINE",
"38 30 LINE",
"38 50 LINE",
"106 50 LINE"
);
},
{
closed = 1;
nodes = (
"40 48 LINE",
"40 32 LINE",
"104 32 LINE",
"104 48 LINE"
);
}
);
width = 144;
}
);
unicode = 0038;
},
{
glyphname = asterisk;
lastChange = "2013-06-11 08:40:19 +0100";
layers = (
{
components = (
{
name = plus;
transform = "{1, 0, 0, 1, 0, 0}";
}
);
layerId = "940E2F63-624A-4C3D-A909-721782B4CF41";
name = Regular;
paths = (
{
closed = 1;
nodes = (
"38 126 LINE",
"10 126 LINE",
"10 98 LINE",
"38 98 LINE"
);
},
{
closed = 1;
nodes = (
"8 96 LINE",
"8 128 LINE",
"40 128 LINE",
"40 96 LINE"
);
},
{
closed = 1;
nodes = (
"106 126 LINE",
"106 98 LINE",
"134 98 LINE",
"134 126 LINE"
);
},
{
closed = 1;
nodes = (
"136 96 LINE",
"104 96 LINE",
"104 128 LINE",
"136 128 LINE"
);
},
{
closed = 1;
nodes = (
"10 2 LINE",
"38 2 LINE",
"38 30 LINE",
"10 30 LINE"
);
},
{
closed = 1;
nodes = (
"40 32 LINE",
"40 0 LINE",
"8 0 LINE",
"8 32 LINE"
);
},
{
closed = 1;
nodes = (
"106 2 LINE",
"134 2 LINE",
"134 30 LINE",
"106 30 LINE"
);
},
{
closed = 1;
nodes = (
"136 32 LINE",
"136 0 LINE",
"104 0 LINE",
"104 32 LINE"
);
}
);
width = 144;
}
);
unicode = 002A;
},
{
glyphname = backslash;
lastChange = "2013-06-11 08:40:23 +0100";
layers = (
{
layerId = "940E2F63-624A-4C3D-A909-721782B4CF41";
name = Regular;
paths = (
{
closed = 1;
nodes = (
"10 2 LINE",
"38 2 LINE",
"38 126 LINE",
"10 126 LINE"
);
},
{
closed = 1;
nodes = (
"40 128 LINE",
"40 0 LINE",
"8 0 LINE",
"8 128 LINE"
);
},
{
closed = 1;
nodes = (
"58 2 LINE",
"86 2 LINE",
"86 126 LINE",
"58 126 LINE"
);
},
{
closed = 1;
nodes = (
"88 128 LINE",
"88 0 LINE",
"56 0 LINE",
"56 128 LINE"
);
},
{
closed = 1;
nodes = (
"106 2 LINE",
"134 2 LINE",
"134 126 LINE",
"106 126 LINE"
);
},
{
closed = 1;
nodes = (
"136 128 LINE",
"136 0 LINE",
"104 0 LINE",
"104 128 LINE"
);
}
);
width = 144;
}
);
unicode = 005C;
},
{
glyphname = bullet;
lastChange = "2013-06-11 08:40:25 +0100";
layers = (
{
layerId = "940E2F63-624A-4C3D-A909-721782B4CF41";
name = Regular;
paths = (
{
closed = 1;
nodes = (
"10 126 LINE",
"10 98 LINE",
"134 98 LINE",
"134 126 LINE"
);
},
{
closed = 1;
nodes = (
"136 96 LINE",
"8 96 LINE",
"8 128 LINE",
"136 128 LINE"
);
},
{
closed = 1;
nodes = (
"10 78 LINE",
"10 50 LINE",
"134 50 LINE",
"134 78 LINE"
);
},
{
closed = 1;
nodes = (
"136 48 LINE",
"8 48 LINE",
"8 80 LINE",
"136 80 LINE"
);
},
{
closed = 1;
nodes = (
"10 30 LINE",
"10 2 LINE",
"134 2 LINE",
"134 30 LINE"
);
},
{
closed = 1;
nodes = (
"136 0 LINE",
"8 0 LINE",
"8 32 LINE",
"136 32 LINE"
);
}
);
width = 144;
}
);
unicode = 2022;
},
{
glyphname = comma;
lastChange = "2013-06-11 08:40:28 +0100";
layers = (
{
layerId = "940E2F63-624A-4C3D-A909-721782B4CF41";
name = Regular;
paths = (
{
closed = 1;
nodes = (
"10 2 LINE",
"134 2 LINE",
"134 126 LINE",
"10 126 LINE"
);
},
{
closed = 1;
nodes = (
"136 128 LINE",
"136 0 LINE",
"8 0 LINE",
"8 128 LINE"
);
}
);
width = 144;
}
);
unicode = 002C;
},
{
glyphname = ellipsis;
lastChange = "2013-06-11 08:40:31 +0100";
layers = (
{
layerId = "940E2F63-624A-4C3D-A909-721782B4CF41";
name = Regular;
paths = (
{
closed = 1;
nodes = (
"38 30 LINE",
"10 30 LINE",
"10 2 LINE",
"38 2 LINE"
);
},
{
closed = 1;
nodes = (
"8 0 LINE",
"8 32 LINE",
"40 32 LINE",
"40 0 LINE"
);
},
{
closed = 1;
nodes = (
"10 126 LINE",
"10 98 LINE",
"134 98 LINE",
"134 126 LINE"
);
},
{
closed = 1;
nodes = (
"136 96 LINE",
"8 96 LINE",
"8 128 LINE",
"136 128 LINE"
);
},
{
closed = 1;
nodes = (
"10 78 LINE",
"10 50 LINE",
"134 50 LINE",
"134 78 LINE"
);
},
{
closed = 1;
nodes = (
"136 48 LINE",
"8 48 LINE",
"8 80 LINE",
"136 80 LINE"
);
},
{
closed = 1;
nodes = (
"86 30 LINE",
"58 30 LINE",
"58 2 LINE",
"86 2 LINE"
);
},
{
closed = 1;
nodes = (
"56 0 LINE",
"56 32 LINE",
"88 32 LINE",
"88 0 LINE"
);
},
{
closed = 1;
nodes = (
"134 30 LINE",
"106 30 LINE",
"106 2 LINE",
"134 2 LINE"
);
},
{
closed = 1;
nodes = (
"104 0 LINE",
"104 32 LINE",
"136 32 LINE",
"136 0 LINE"
);
}
);
width = 144;
}
);
unicode = 2026;
},
{
glyphname = exclam;
lastChange = "2013-06-11 08:40:33 +0100";
layers = (
{
layerId = "940E2F63-624A-4C3D-A909-721782B4CF41";
name = Regular;
paths = (
{
closed = 1;
nodes = (
"134 126 LINE",
"106 126 LINE",
"106 50 LINE",
"134 50 LINE"
);
},
{
closed = 1;
nodes = (
"104 48 LINE",
"104 128 LINE",
"136 128 LINE",
"136 48 LINE"
);
},
{
closed = 1;
nodes = (
"86 126 LINE",
"58 126 LINE",
"58 50 LINE",
"86 50 LINE"
);
},
{
closed = 1;
nodes = (
"56 48 LINE",
"56 128 LINE",
"88 128 LINE",
"88 48 LINE"
);
},
{
closed = 1;
nodes = (
"38 126 LINE",
"10 126 LINE",
"10 50 LINE",
"38 50 LINE"
);
},
{
closed = 1;
nodes = (
"8 48 LINE",
"8 128 LINE",
"40 128 LINE",
"40 48 LINE"
);
},
{
closed = 1;
nodes = (
"38 30 LINE",
"10 30 LINE",
"10 2 LINE",
"38 2 LINE"
);
},
{
closed = 1;
nodes = (
"8 0 LINE",
"8 32 LINE",
"40 32 LINE",
"40 0 LINE"
);
},
{
closed = 1;
nodes = (
"134 30 LINE",
"106 30 LINE",
"106 2 LINE",
"134 2 LINE"
);
},
{
closed = 1;
nodes = (
"104 0 LINE",
"104 32 LINE",
"136 32 LINE",
"136 0 LINE"
);
},
{
closed = 1;
nodes = (
"86 30 LINE",
"58 30 LINE",
"58 2 LINE",
"86 2 LINE"
);
},
{
closed = 1;
nodes = (
"56 0 LINE",
"56 32 LINE",
"88 32 LINE",
"88 0 LINE"
);
}
);
width = 144;
}
);
unicode = 0021;
},
{
glyphname = numbersign;
lastChange = "2013-06-11 08:40:38 +0100";
layers = (
{
layerId = "940E2F63-624A-4C3D-A909-721782B4CF41";
name = Regular;
paths = (
{
closed = 1;
nodes = (
"10 126 LINE",
"10 2 LINE",
"134 2 LINE",
"134 126 LINE"
);
},
{
closed = 1;
nodes = (
"136 0 LINE",
"8 0 LINE",
"8 128 LINE",
"136 128 LINE"
);
},
{
closed = 1;
nodes = (
"38 98 LINE",
"58 98 LINE",
"58 78 LINE",
"38 78 LINE"
);
},
{
closed = 1;
nodes = (
"56 80 LINE",
"56 96 LINE",
"40 96 LINE",
"40 80 LINE"
);
},
{
closed = 1;
nodes = (
"106 78 LINE",
"86 78 LINE",
"86 98 LINE",
"106 98 LINE"
);
},
{
closed = 1;
nodes = (
"88 96 LINE",
"88 80 LINE",
"104 80 LINE",
"104 96 LINE"
);
},
{
closed = 1;
nodes = (
"38 30 LINE",
"38 50 LINE",
"58 50 LINE",
"58 30 LINE"
);
},
{
closed = 1;
nodes = (
"56 48 LINE",
"40 48 LINE",
"40 32 LINE",
"56 32 LINE"
);
},
{
closed = 1;
nodes = (
"106 30 LINE",
"86 30 LINE",
"86 50 LINE",
"106 50 LINE"
);
},
{
closed = 1;
nodes = (
"88 48 LINE",
"88 32 LINE",
"104 32 LINE",
"104 48 LINE"
);
}
);
width = 144;
}
);
unicode = 0023;
},
{
glyphname = question;
lastChange = "2013-06-11 08:40:45 +0100";
layers = (
{
layerId = "940E2F63-624A-4C3D-A909-721782B4CF41";
name = Regular;
paths = (
{
closed = 1;
nodes = (
"10 126 LINE",
"10 98 LINE",
"106 98 LINE",
"106 78 LINE",
"58 78 LINE",
"58 50 LINE",
"134 50 LINE",
"134 126 LINE"
);
},
{
closed = 1;
nodes = (
"136 48 LINE",
"56 48 LINE",
"56 80 LINE",
"104 80 LINE",
"104 96 LINE",
"8 96 LINE",
"8 128 LINE",
"136 128 LINE"
);
},
{
closed = 1;
nodes = (
"86 30 LINE",
"58 30 LINE",
"58 2 LINE",
"86 2 LINE"
);
},
{
closed = 1;
nodes = (
"56 0 LINE",
"56 32 LINE",
"88 32 LINE",
"88 0 LINE"
);
}
);
width = 144;
}
);
unicode = 003F;
},
{
glyphname = braceleft;
lastChange = "2013-06-11 08:40:50 +0100";
layers = (
{
layerId = "940E2F63-624A-4C3D-A909-721782B4CF41";
name = Regular;
paths = (
{
closed = 1;
nodes = (
"134 98 LINE",
"134 126 LINE",
"58 126 LINE",
"58 78 LINE",
"10 78 LINE",
"10 50 LINE",
"58 50 LINE",
"58 2 LINE",
"134 2 LINE",
"134 30 LINE",
"86 30 LINE",
"86 98 LINE"
);
},
{
closed = 1;
nodes = (
"88 32 LINE",
"136 32 LINE",
"136 0 LINE",
"56 0 LINE",
"56 48 LINE",
"8 48 LINE",
"8 80 LINE",
"56 80 LINE",
"56 128 LINE",
"136 128 LINE",
"136 96 LINE",
"88 96 LINE"
);
}
);
width = 144;
}
);
unicode = 007B;
},
{
color = 0;
glyphname = dollar;
lastChange = "2013-12-01 19:21:35 +0000";
layers = (
{
layerId = "940E2F63-624A-4C3D-A909-721782B4CF41";
name = Regular;
paths = (
{
closed = 1;
nodes = (
"38 98 LINE",
"38 78 LINE",
"58 78 LINE",
"58 98 LINE"
);
},
{
closed = 1;
nodes = (
"136 96 LINE",
"136 128 LINE",
"8 128 LINE",
"8 48 LINE",
"56 48 LINE",
"56 32 LINE",
"8 32 LINE",
"8 0 LINE",
"136 0 LINE",
"136 80 LINE",
"88 80 LINE",
"88 96 LINE"
);
},
{
closed = 1;
nodes = (
"56 80 LINE",
"40 80 LINE",
"40 96 LINE",
"56 96 LINE"
);
},
{
closed = 1;
nodes = (
"86 78 LINE",
"134 78 LINE",
"134 2 LINE",
"10 2 LINE",
"10 30 LINE",
"58 30 LINE",
"58 50 LINE",
"10 50 LINE",
"10 126 LINE",
"134 126 LINE",
"134 98 LINE",
"86 98 LINE"
);
},
{
closed = 1;
nodes = (
"86 50 LINE",
"86 30 LINE",
"106 30 LINE",
"106 50 LINE"
);
},
{
closed = 1;
nodes = (
"104 32 LINE",
"88 32 LINE",
"88 48 LINE",
"104 48 LINE"
);
}
);
width = 144;
}
);
unicode = 0024;
},
{
color = 0;
glyphname = euro;
lastChange = "2013-12-01 19:24:50 +0000";
layers = (
{
layerId = "940E2F63-624A-4C3D-A909-721782B4CF41";
name = Regular;
paths = (
{
closed = 1;
nodes = (
"136 48 LINE",
"136 80 LINE",
"88 80 LINE",
"88 96 LINE",
"136 96 LINE",
"136 128 LINE",
"56 128 LINE",
"56 80 LINE",
"8 80 LINE",
"8 48 LINE",
"56 48 LINE",
"56 0 LINE",
"136 0 LINE",
"136 32 LINE",
"88 32 LINE",
"88 48 LINE"
);
},
{
closed = 1;
nodes = (
"86 30 LINE",
"134 30 LINE",
"134 2 LINE",
"58 2 LINE",
"58 50 LINE",
"10 50 LINE",
"10 78 LINE",
"58 78 LINE",
"58 126 LINE",
"134 126 LINE",
"134 98 LINE",
"86 98 LINE",
"86 78 LINE",
"134 78 LINE",
"134 50 LINE",
"86 50 LINE"
);
}
);
width = 144;
}
);
unicode = 20AC;
},
{
glyphname = divide;
lastChange = "2013-12-01 19:19:17 +0000";
layers = (
{
layerId = "940E2F63-624A-4C3D-A909-721782B4CF41";
name = Regular;
paths = (
{
closed = 1;
nodes = (
"58 126 LINE",
"58 98 LINE",
"86 98 LINE",
"86 126 LINE"
);
},
{
closed = 1;
nodes = (
"88 96 LINE",
"56 96 LINE",
"56 128 LINE",
"88 128 LINE"
);
},
{
closed = 1;
nodes = (
"58 30 LINE",
"58 2 LINE",
"86 2 LINE",
"86 30 LINE"
);
},
{
closed = 1;
nodes = (
"88 0 LINE",
"56 0 LINE",
"56 32 LINE",
"88 32 LINE"
);
},
{
closed = 1;
nodes = (
"10 50 LINE",
"134 50 LINE",
"134 78 LINE",
"10 78 LINE"
);
},
{
closed = 1;
nodes = (
"136 80 LINE",
"136 48 LINE",
"8 48 LINE",
"8 80 LINE"
);
}
);
width = 144;
}
);
unicode = 00F7;
},
{
glyphname = notequal;
lastChange = "2013-06-11 08:45:43 +0100";
layers = (
{
layerId = "940E2F63-624A-4C3D-A909-721782B4CF41";
name = Regular;
paths = (
{
closed = 1;
nodes = (
"10 126 LINE",
"10 2 LINE",
"134 2 LINE",
"134 126 LINE"
);
},
{
closed = 1;
nodes = (
"136 0 LINE",
"8 0 LINE",
"8 128 LINE",
"136 128 LINE"
);
},
{
closed = 1;
nodes = (
"38 98 LINE",
"58 98 LINE",
"58 78 LINE",
"38 78 LINE"
);
},
{
closed = 1;
nodes = (
"56 80 LINE",
"56 96 LINE",
"40 96 LINE",
"40 80 LINE"
);
},
{
closed = 1;
nodes = (
"106 78 LINE",
"86 78 LINE",
"86 98 LINE",
"106 98 LINE"
);
},
{
closed = 1;
nodes = (
"88 96 LINE",
"88 80 LINE",
"104 80 LINE",
"104 96 LINE"
);
},
{
closed = 1;
nodes = (
"38 30 LINE",
"38 50 LINE",
"58 50 LINE",
"58 30 LINE"
);
},
{
closed = 1;
nodes = (
"56 48 LINE",
"40 48 LINE",
"40 32 LINE",
"56 32 LINE"
);
},
{
closed = 1;
nodes = (
"106 30 LINE",
"86 30 LINE",
"86 50 LINE",
"106 50 LINE"
);
},
{
closed = 1;
nodes = (
"88 48 LINE",
"88 32 LINE",
"104 32 LINE",
"104 48 LINE"
);
}
);
width = 144;
}
);
unicode = 2260;
},
{
color = 0;
glyphname = percent;
lastChange = "2013-12-01 19:26:59 +0000";
layers = (
{
layerId = "940E2F63-624A-4C3D-A909-721782B4CF41";
name = Regular;
paths = (
{
closed = 1;
nodes = (
"104 128 LINE",
"104 80 LINE",
"8 80 LINE",
"8 0 LINE",
"40 0 LINE",
"40 48 LINE",
"136 48 LINE",
"136 128 LINE"
);
},
{
closed = 1;
nodes = (
"134 50 LINE",
"38 50 LINE",
"38 2 LINE",
"10 2 LINE",
"10 78 LINE",
"106 78 LINE",
"106 126 LINE",
"134 126 LINE"
);
},
{
closed = 1;
nodes = (
"56 0 LINE",
"136 0 LINE",
"136 32 LINE",
"56 32 LINE"
);
},
{
closed = 1;
nodes = (
"134 30 LINE",
"134 2 LINE",
"58 2 LINE",
"58 30 LINE"
);
},
{
closed = 1;
nodes = (
"8 96 LINE",
"88 96 LINE",
"88 128 LINE",
"8 128 LINE"
);
},
{
closed = 1;
nodes = (
"86 126 LINE",
"86 98 LINE",
"10 98 LINE",
"10 126 LINE"
);
}
);
width = 144;
}
);
unicode = 0025;
},
{
glyphname = plus;
lastChange = "2013-06-11 08:41:30 +0100";
layers = (
{
layerId = "940E2F63-624A-4C3D-A909-721782B4CF41";
name = Regular;
paths = (
{
closed = 1;
nodes = (
"134 78 LINE",
"86 78 LINE",
"86 126 LINE",
"58 126 LINE",
"58 78 LINE",
"10 78 LINE",
"10 50 LINE",
"58 50 LINE",
"58 2 LINE",
"86 2 LINE",
"86 50 LINE",
"134 50 LINE"
);
},
{
closed = 1;
nodes = (
"88 48 LINE",
"88 0 LINE",
"56 0 LINE",
"56 48 LINE",
"8 48 LINE",
"8 80 LINE",
"56 80 LINE",
"56 128 LINE",
"88 128 LINE",
"88 80 LINE",
"136 80 LINE",
"136 48 LINE"
);
}
);
width = 144;
}
);
unicode = 002B;
},
{
glyphname = ampersand;
lastChange = "2013-06-11 08:41:32 +0100";
layers = (
{
layerId = "940E2F63-624A-4C3D-A909-721782B4CF41";
name = Regular;
paths = (
{
closed = 1;
nodes = (
"58 126 LINE",
"58 78 LINE",
"10 78 LINE",
"10 2 LINE",
"134 2 LINE",
"134 30 LINE",
"38 30 LINE",
"38 50 LINE",
"134 50 LINE",
"134 126 LINE"
);
},
{
closed = 1;
nodes = (
"136 48 LINE",
"40 48 LINE",
"40 32 LINE",
"136 32 LINE",
"136 0 LINE",
"8 0 LINE",
"8 80 LINE",
"56 80 LINE",
"56 128 LINE",
"136 128 LINE"
);
},
{
closed = 1;
nodes = (
"106 98 LINE",
"106 78 LINE",
"86 78 LINE",
"86 98 LINE"
);
},
{
closed = 1;
nodes = (
"88 80 LINE",
"104 80 LINE",
"104 96 LINE",
"88 96 LINE"
);
}
);
width = 144;
}
);
unicode = 0026;
},
{
glyphname = degree;
lastChange = "2013-06-11 08:41:38 +0100";
layers = (
{
layerId = "940E2F63-624A-4C3D-A909-721782B4CF41";
name = Regular;
paths = (
{
closed = 1;
nodes = (
"86 126 LINE",
"10 126 LINE",
"10 50 LINE",
"86 50 LINE"
);
},
{
closed = 1;
nodes = (
"8 48 LINE",
"8 128 LINE",
"88 128 LINE",
"88 48 LINE"
);
},
{
closed = 1;
nodes = (
"106 30 LINE",
"58 30 LINE",
"58 2 LINE",
"134 2 LINE",
"134 78 LINE",
"106 78 LINE"
);
},
{
closed = 1;
nodes = (
"136 80 LINE",
"136 0 LINE",
"56 0 LINE",
"56 32 LINE",
"104 32 LINE",
"104 80 LINE"
);
},
{
closed = 1;
nodes = (
"58 98 LINE",
"58 78 LINE",
"38 78 LINE",
"38 98 LINE"
);
},
{
closed = 1;
nodes = (
"40 80 LINE",
"56 80 LINE",
"56 96 LINE",
"40 96 LINE"
);
}
);
width = 144;
}
);
unicode = 00B0;
},
